<svg width="32" height="32" viewBox="0 0 32 32" fill="none" xmlns="http://www.w3.org/2000/svg">
<g id="raphael:facebook">
<path id="Vector" d="M24.4603 4H7.53785C5.59202 4 3.99998 5.59204 3.99998 7.53787V24.4621C3.99998 26.408 5.59202 28 7.53785 28H24.4621C26.4079 28 28 26.408 28 24.4621V7.53787C27.9982 5.59204 26.4079 4 24.4603 4ZM24.233 16.8097H21.3851V27.1138H17.1237V16.8097H14.9921V13.2577H17.1237V11.1261C17.1237 8.22863 18.3266 6.50481 21.7495 6.50481H24.5948V10.0559H22.8152C21.485 10.0559 21.3966 10.5539 21.3966 11.4799L21.3851 13.2577H24.6089L24.233 16.8097Z" fill="#D9D9D9"/>
</g>
</svg>
