<svg width="64" height="64" viewBox="0 0 64 64" fill="none" xmlns="http://www.w3.org/2000/svg">
<g id="wpf:guitar" clip-path="url(#clip0_22_532)">
<path id="Vector" d="M58.0775 0.000223599C57.4474 0.000223599 56.7877 0.211916 56.3077 0.691916L55.3083 1.77007L54.8455 1.38607C54.7313 1.26678 54.5942 1.17185 54.4423 1.107C54.2904 1.04214 54.127 1.00871 53.9618 1.00871C53.7967 1.00871 53.6333 1.04214 53.4814 1.107C53.3295 1.17185 53.1924 1.26678 53.0782 1.38607C52.9589 1.50027 52.8639 1.63744 52.7991 1.78932C52.7342 1.94119 52.7008 2.10462 52.7008 2.26976C52.7008 2.4349 52.7342 2.59833 52.7991 2.75021C52.8639 2.90208 52.9589 3.03925 53.0782 3.15345L53.4622 3.61622L52.8468 4.23161L52.384 3.84515C52.2698 3.72586 52.1326 3.63093 51.9808 3.56608C51.8289 3.50122 51.6655 3.46779 51.5003 3.46779C51.3352 3.46779 51.1717 3.50122 51.0199 3.56608C50.868 3.63093 50.7308 3.72586 50.6166 3.84515C50.4966 3.95942 50.401 4.09689 50.3357 4.24922C50.2704 4.40155 50.2367 4.56556 50.2367 4.7313C50.2367 4.89704 50.2704 5.06105 50.3357 5.21339C50.401 5.36572 50.4966 5.50319 50.6166 5.61745L51.0006 6.07776L50.5378 6.53807C50.2393 6.83352 50.025 7.20319 49.9168 7.60902C49.8086 8.01485 49.8106 8.44217 49.9225 8.84699L39.1532 19.6162C36.9305 17.6716 33.568 15.3848 29.9225 15.3848C28.3052 15.3848 26.6437 15.8771 24.9994 16.9996C21.3514 19.4931 22.0505 23.2716 19.7686 25.4624C17.2086 27.9239 10.2105 25.9399 3.76862 32.3842C-2.67323 38.8236 0.182154 47.7319 8.384 55.6162C13.3022 60.7313 18.5945 63.7688 23.4609 63.7688C26.3926 63.7688 29.1914 62.6562 31.616 60.2316C38.0578 53.7898 36.0738 46.7965 38.5378 44.2316C40.7286 41.9547 44.5809 42.7276 47.0769 39.0771C50.7372 33.7282 47.2049 28.0716 44.384 24.847L55.1532 14.0778C55.9655 14.2845 56.8246 14.0999 57.4622 13.4624L57.9225 12.9996L58.3852 13.3861C58.4913 13.5056 58.6212 13.6015 58.7666 13.6676C58.9121 13.7338 59.0698 13.7687 59.2295 13.7701C59.5761 13.7677 59.9078 13.6289 60.1526 13.3836C60.2719 13.2694 60.3668 13.1322 60.4317 12.9804C60.4965 12.8285 60.53 12.6651 60.53 12.4999C60.53 12.3348 60.4965 12.1713 60.4317 12.0195C60.3668 11.8676 60.2719 11.7304 60.1526 11.6162L59.7686 11.1535L60.384 10.5381L60.8468 10.9245C60.9528 11.044 61.0828 11.14 61.2282 11.2061C61.3736 11.2722 61.5313 11.3071 61.6911 11.3085C62.0376 11.3062 62.3693 11.1673 62.6142 10.9221C62.7334 10.8079 62.8284 10.6707 62.8932 10.5188C62.9581 10.367 62.9915 10.2035 62.9915 10.0384C62.9915 9.87324 62.9581 9.70981 62.8932 9.55793C62.8284 9.40606 62.7334 9.26889 62.6142 9.15469L62.2302 8.69192L63.3083 7.69253C63.5368 7.46598 63.7181 7.19642 63.8419 6.89942C63.9657 6.60241 64.0294 6.28383 64.0294 5.96207C64.0294 5.64031 63.9657 5.32173 63.8419 5.02473C63.7181 4.72772 63.5368 4.45816 63.3083 4.23161L59.7662 0.689454C59.5462 0.466044 59.283 0.289731 58.9927 0.171242C58.7024 0.0527534 58.391 -0.00543292 58.0775 0.000223599ZM57.9225 2.92453C58.112 2.92453 58.3163 2.93438 58.4615 3.07715C58.6003 3.22233 58.6777 3.41541 58.6777 3.61622C58.6777 3.81703 58.6003 4.01012 58.4615 4.1553L53.5385 9.07838C53.3955 9.222 53.202 9.30414 52.9994 9.3073C52.7975 9.30183 52.6054 9.219 52.4628 9.07592C52.3248 8.93085 52.2478 8.73829 52.2478 8.53807C52.2478 8.33785 52.3248 8.14529 52.4628 8.00022L57.3858 3.07715C57.5286 2.93438 57.7354 2.92453 57.9225 2.92453ZM60.384 5.38607C60.5735 5.38607 60.7778 5.39345 60.9231 5.53869C61.0624 5.68358 61.1402 5.87677 61.1402 6.07776C61.1402 6.27875 61.0624 6.47194 60.9231 6.61684L56 11.5399C55.8564 11.6827 55.6634 11.7647 55.4609 11.7688C55.2593 11.764 55.0673 11.6821 54.9243 11.5399C54.7856 11.3947 54.7082 11.2016 54.7082 11.0008C54.7082 10.8 54.7856 10.6069 54.9243 10.4618L59.8474 5.53869C59.9902 5.39592 60.1969 5.38607 60.384 5.38607ZM29.9225 18.8433C32.2855 18.8433 34.7815 20.4482 36.6917 22.0753L28.4603 30.3067C28.2782 30.287 28.1108 30.2279 27.9237 30.2279C26.3748 30.2331 24.8908 30.8507 23.7956 31.946C22.7003 33.0412 22.0827 34.5252 22.0775 36.0741C22.0827 37.623 22.7003 39.1069 23.7956 40.2022C24.8908 41.2974 26.3748 41.915 27.9237 41.9202C29.4726 41.915 30.9566 41.2974 32.0518 40.2022C33.1471 39.1069 33.7647 37.623 33.7698 36.0741C33.7698 35.887 33.7108 35.7196 33.6935 35.535L41.9988 27.2298C44.1354 29.7061 46.5477 33.6888 44.2314 37.0759C43.4782 38.1738 42.5305 38.5775 40.8468 39.151C39.3649 39.6556 37.5114 40.271 36 41.8439C34.3409 43.5695 33.9717 45.839 33.5385 48.2292C32.992 51.2298 32.3791 54.6218 29.1545 57.8439C27.4609 59.5375 25.5951 60.3818 23.4609 60.3818C19.7268 60.3818 15.2468 57.807 10.8455 53.2285C10.8213 53.2019 10.7959 53.1764 10.7692 53.1522C6.22769 48.7928 3.65292 44.3325 3.616 40.6156C3.59138 38.447 4.43815 36.5664 6.15385 34.8458C9.37846 31.6211 12.7705 31.0058 15.7686 30.4618C18.1588 30.0285 20.4308 29.583 22.1538 27.9239C23.7145 26.4273 24.3323 24.6181 24.8468 23.1535C25.4375 21.4747 25.8068 20.6082 26.9243 19.8451C27.8794 19.1928 28.8689 18.8433 29.9225 18.8433ZM13.6911 40.0741C13.4889 40.0785 13.2965 40.1615 13.1545 40.3055L11.616 41.8464C11.475 41.9904 11.396 42.1839 11.396 42.3855C11.396 42.587 11.475 42.7805 11.616 42.9245L21.0757 52.3842C21.3662 52.6722 21.8634 52.6722 22.1538 52.3842L23.6923 50.8458C23.8314 50.7013 23.9092 50.5085 23.9092 50.3079C23.9092 50.1073 23.8314 49.9146 23.6923 49.7701L14.2302 40.3079C14.0882 40.164 13.8957 40.081 13.6935 40.0765L13.6911 40.0741Z" fill="#C46A2B"/>
</g>
<defs>
<clipPath id="clip0_22_532">
<rect width="64" height="64" fill="white"/>
</clipPath>
</defs>
</svg>
