<svg width="32" height="32" viewBox="0 0 32 32" fill="none" xmlns="http://www.w3.org/2000/svg">
<g id="uim:whatsapp">
<path id="Vector" d="M27.988 9.45667C27.978 8.94182 27.9367 8.42804 27.8644 7.9182C27.7782 7.4647 27.6317 7.02477 27.4288 6.61013C26.9846 5.73325 26.2725 5.02074 25.396 4.57603C24.984 4.37407 24.547 4.22798 24.0964 4.14161C23.5827 4.06778 23.0649 4.0257 22.546 4.0156C22.3264 4.0072 22.042 4.0036 21.91 4.0036L10.0924 4C9.96037 4 9.67597 4.0036 9.45637 4.012C8.94154 4.02192 8.42778 4.0632 7.91797 4.13561C7.46449 4.22182 7.02459 4.36833 6.60997 4.57123C5.73318 5.01549 5.02073 5.72756 4.57597 6.60413C4.37408 7.01613 4.22799 7.4532 4.14157 7.9038C4.06741 8.41752 4.02493 8.93533 4.01437 9.45427C4.00717 9.67388 4.00237 9.9583 4.00237 10.0903L3.99997 21.9085C3.99997 22.0405 4.00357 22.3249 4.01197 22.5445C4.02189 23.0594 4.06317 23.5732 4.13557 24.083C4.22179 24.5365 4.36829 24.9764 4.57117 25.3911C5.01541 26.2679 5.72744 26.9804 6.60397 27.4252C7.01596 27.627 7.453 27.7731 7.90357 27.8596C8.41729 27.9334 8.93507 27.9755 9.45397 27.9856C9.67357 27.994 9.95797 27.9976 10.09 27.9976L21.9076 28C22.0396 28 22.324 27.9964 22.5436 27.988C23.0584 27.978 23.5722 27.9368 24.082 27.8644C24.5354 27.7781 24.9753 27.6316 25.39 27.4288C26.2672 26.9847 26.9801 26.2726 27.4252 25.3959C27.6271 24.9839 27.7732 24.5468 27.8596 24.0962C27.9338 23.5825 27.9762 23.0647 27.9868 22.5457C27.994 22.3261 27.9988 22.0417 27.9988 21.9097L28 10.0927C28 9.9607 27.9964 9.67628 27.988 9.45667ZM16.2604 24.3494H16.2568C14.8284 24.3491 13.4228 23.991 12.1684 23.3078L7.63237 24.497L8.84677 20.0652C7.90651 18.4335 7.53082 16.5372 7.77793 14.6702C8.02504 12.8032 8.88116 11.0699 10.2135 9.73908C11.5459 8.40822 13.2801 7.55412 15.1473 7.30922C17.0145 7.06432 18.9103 7.44229 20.5408 8.38453C22.1713 9.32678 23.4454 10.7806 24.1656 12.5207C24.8857 14.2608 25.0117 16.1899 24.524 18.0089C24.0363 19.8279 22.9622 21.4352 21.4681 22.5816C19.974 23.7279 18.1435 24.3493 16.2604 24.3494Z" fill="#D9D9D9"/>
<path id="Vector_2" d="M16.0025 9.00118C14.7518 9.00082 13.5238 9.33553 12.4463 9.97052C11.3688 10.6055 10.4811 11.5176 9.87546 12.6119C9.26984 13.7062 8.96844 14.9428 9.00261 16.193C9.03679 17.4433 9.40528 18.6616 10.0698 19.7212L10.2363 19.9857L9.52882 22.5677L12.1781 21.8732L12.4332 22.0244C13.5116 22.6631 14.742 23.0001 15.9954 23H15.999C17.8554 23.0003 19.636 22.2631 20.949 20.9506C22.2619 19.6381 22.9997 17.8577 23 16.0012C23.0003 14.1447 22.2631 12.3641 20.9506 11.0511C19.6381 9.73811 17.8578 9.00031 16.0013 9L16.0025 9.00118ZM20.1175 19.0054C19.9627 19.2611 19.7566 19.482 19.5123 19.6541C19.268 19.8263 18.9907 19.946 18.6978 20.0058C18.2556 20.0817 17.8019 20.0533 17.3726 19.9231C16.9655 19.7963 16.5653 19.648 16.1738 19.479C14.7207 18.7498 13.4821 17.6553 12.5796 16.303C12.0873 15.6769 11.7885 14.9208 11.7198 14.1273C11.7141 13.7998 11.7767 13.4747 11.9036 13.1727C12.0305 12.8707 12.2189 12.5985 12.4568 12.3733C12.5271 12.2931 12.6132 12.2283 12.7098 12.183C12.8063 12.1377 12.9112 12.1128 13.0178 12.1099C13.1572 12.1099 13.2978 12.1099 13.4206 12.117C13.5505 12.1229 13.723 12.0674 13.893 12.4784C14.0702 12.8989 14.4907 13.9348 14.5426 14.0399C14.576 14.095 14.5951 14.1576 14.5982 14.2219C14.6013 14.2863 14.5883 14.3504 14.5604 14.4084C14.5074 14.5348 14.4366 14.6529 14.3501 14.7592C14.2438 14.8821 14.1293 15.0332 14.0348 15.1277C13.9285 15.2329 13.8198 15.3462 13.9415 15.5565C14.2574 16.0975 14.6519 16.5887 15.1119 17.014C15.6111 17.4578 16.1839 17.8111 16.8045 18.0581C17.0147 18.1644 17.1375 18.1455 17.2604 18.005C17.3832 17.8644 17.786 17.3908 17.9265 17.1805C18.0671 16.9703 18.2065 17.0057 18.399 17.0754C18.5915 17.1451 19.6273 17.6542 19.8376 17.7605C20.0478 17.8668 20.1884 17.9176 20.2403 18.005C20.2979 18.3433 20.2552 18.6911 20.1175 19.0054Z" fill="#D9D9D9"/>
</g>
</svg>
